<?xml version="1.0" standalone="no"?>
<!DOCTYPE svg PUBLIC "-//W3C//DTD SVG 20010904//EN"
 "http://www.w3.org/TR/2001/REC-SVG-20010904/DTD/svg10.dtd">
<svg version="1.0" xmlns="http://www.w3.org/2000/svg"
 width="395.000000pt" height="187.000000pt" viewBox="0 0 395.000000 187.000000"
 preserveAspectRatio="xMidYMid meet">
<metadata>
Created by potrace 1.16, written by Peter Selinger 2001-2019
</metadata>
<g transform="translate(0.000000,187.000000) scale(0.100000,-0.100000)"
fill="#000000" stroke="none">
<path d="M1906 1488 c-3 -7 -10 -30 -16 -50 -6 -21 -15 -38 -18 -38 -4 0 -31
16 -61 36 l-53 36 7 -53 7 -52 -37 23 c-21 13 -36 19 -33 14 2 -5 14 -31 26
-58 17 -37 26 -47 40 -43 9 4 44 16 77 28 46 17 80 22 150 21 50 0 99 -2 110
-4 15 -2 20 4 25 32 4 19 10 46 15 60 7 23 7 24 -11 10 -10 -8 -23 -21 -27
-27 -16 -25 -27 -12 -27 32 0 25 -4 45 -9 45 -5 0 -25 -20 -45 -45 -21 -25
-41 -45 -45 -45 -4 0 -17 18 -30 40 -25 45 -39 57 -45 38z"/>
<path d="M1905 1325 c-5 -2 -36 -11 -67 -21 -53 -15 -77 -34 -44 -34 7 0 20
-7 27 -16 12 -15 10 -16 -18 -10 -25 6 -36 3 -54 -15 -17 -17 -20 -29 -16 -66
4 -41 4 -43 -10 -23 -8 11 -15 39 -15 61 l0 41 -40 -39 c-39 -37 -98 -118 -98
-135 0 -4 9 -8 20 -8 25 0 25 -2 -4 -45 -25 -37 -66 -146 -66 -177 0 -15 4
-16 26 -8 48 18 49 16 49 -88 1 -102 17 -182 38 -182 15 0 73 60 107 109 l23
34 10 -24 c5 -13 7 -73 5 -133 l-3 -109 40 -14 c65 -23 197 -13 262 20 29 15
55 27 58 27 3 0 5 -11 5 -25 0 -40 23 -30 82 34 44 47 60 74 80 136 25 74 26
77 39 54 l12 -24 13 30 c20 48 26 137 15 201 -13 73 -77 207 -96 201 -17 -7
-35 12 -28 29 8 22 -17 47 -33 33 -11 -9 -18 -8 -29 1 -29 24 -16 -9 19 -47
l34 -38 -53 0 c-46 0 -58 4 -85 30 -23 22 -30 35 -25 53 5 21 3 22 -15 12 -15
-8 -27 -7 -51 5 -33 18 -80 13 -98 -9 -17 -20 10 -37 65 -41 35 -2 53 -10 75
-31 l29 -29 -78 1 c-86 1 -115 13 -133 56 -6 16 -19 28 -28 28 -11 1 -8 8 14
27 17 15 29 32 27 39 -3 16 77 54 116 54 18 0 50 -11 72 -25 48 -30 46 -30 53
-4 5 18 8 19 29 8 13 -6 41 -26 63 -43 32 -25 38 -27 31 -11 -4 11 -10 32 -13
48 -6 32 -43 61 -104 82 -53 19 -52 19 -43 -7 6 -21 5 -20 -25 5 -28 23 -41
27 -94 26 -34 0 -66 -2 -72 -4z m270 -341 c35 -23 33 -64 -2 -91 -34 -24 -88
-53 -101 -53 -6 0 -21 22 -36 49 l-25 49 27 18 c74 48 98 53 137 28z"/>
</g>
</svg>
