<?xml version="1.0" standalone="no"?>
<!DOCTYPE svg PUBLIC "-//W3C//DTD SVG 20010904//EN"
 "http://www.w3.org/TR/2001/REC-SVG-20010904/DTD/svg10.dtd">
<svg version="1.0" xmlns="http://www.w3.org/2000/svg"
 width="474.000000pt" height="316.000000pt" viewBox="0 0 474.000000 316.000000"
 preserveAspectRatio="xMidYMid meet">
<metadata>
Created by potrace 1.16, written by Peter Selinger 2001-2019
</metadata>
<g transform="translate(0.000000,316.000000) scale(0.100000,-0.100000)"
fill="#000000" stroke="none">
<path d="M727 3130 c-7 -17 -32 -134 -49 -227 -7 -35 -17 -63 -23 -63 -5 0
-54 46 -108 102 l-98 103 6 -93 c7 -92 10 -119 21 -174 3 -16 3 -28 -1 -28 -3
0 -33 27 -66 60 -33 33 -64 60 -69 60 -13 0 -13 -17 0 -25 8 -5 48 -126 79
-242 l12 -42 61 45 c62 45 156 94 183 94 7 0 16 4 19 8 3 5 44 15 91 22 91 14
195 5 283 -25 20 -7 40 -11 43 -9 3 2 9 44 12 95 4 50 14 118 22 151 9 33 14
65 12 71 -3 11 -54 -59 -90 -126 l-22 -42 -6 65 c-4 36 -7 100 -8 143 0 42 -5
77 -10 77 -8 0 -44 -57 -144 -230 -26 -43 -26 -44 -35 -20 -14 36 -59 145 -99
240 -8 19 -12 21 -16 10z"/>
<path d="M780 2641 c-78 -11 -182 -53 -266 -107 l-24 -16 34 -38 c60 -67 89
-154 33 -102 -36 33 -89 30 -121 -8 -14 -17 -28 -46 -32 -66 -7 -40 0 -218 12
-254 7 -25 7 -25 -14 -6 -42 36 -64 120 -60 227 4 115 2 115 -77 -6 -82 -126
-183 -344 -169 -366 3 -5 23 -13 45 -19 32 -9 38 -14 31 -28 -59 -117 -120
-306 -143 -439 -7 -40 -16 -73 -21 -73 -4 0 -8 -31 -8 -70 0 -71 5 -78 38 -61
72 36 105 51 108 48 2 -2 -1 -61 -6 -131 -19 -247 23 -669 67 -683 19 -7 105
126 173 270 36 75 68 136 71 136 32 3 46 -459 20 -649 l-13 -94 27 -22 c39
-31 104 -64 126 -64 10 0 19 -4 19 -10 0 -6 42 -10 105 -10 63 0 105 4 105 10
0 6 11 10 25 10 27 0 128 46 133 61 2 5 8 9 13 9 9 0 50 33 97 78 31 30 38 20
47 -70 4 -37 10 -68 14 -68 5 0 26 21 47 48 143 171 224 388 266 712 3 23 5
22 33 -20 16 -25 30 -47 32 -49 7 -10 13 10 23 75 6 38 13 80 16 94 3 14 8
105 11 204 8 282 -28 481 -141 771 -30 78 -31 79 -36 45 l-5 -35 -33 47 c-35
52 -37 60 -20 87 9 15 9 29 -1 60 -13 47 -25 50 -58 19 l-23 -22 -30 29 c-17
16 -30 24 -30 18 0 -27 44 -111 95 -180 51 -70 73 -120 43 -95 -31 23 -129 23
-188 -2 -12 -5 -32 19 -79 95 -57 91 -63 105 -57 139 3 21 9 45 12 54 10 26
-24 19 -42 -9 l-17 -26 -26 24 c-89 81 -130 86 -196 24 -42 -40 -56 -67 -37
-67 5 0 17 -8 28 -18 29 -27 73 -41 133 -44 29 -1 57 -6 62 -12 5 -6 19 -25
33 -41 25 -32 86 -132 86 -142 0 -3 -17 -2 -37 2 -21 4 -89 9 -150 9 l-113 2
-36 34 c-41 39 -84 121 -84 161 0 31 -17 49 -47 49 -13 0 -23 3 -23 8 0 16 45
79 82 115 38 37 38 38 22 63 -17 25 -16 26 31 74 82 83 211 135 248 99 8 -8
45 -43 81 -78 37 -35 69 -62 71 -59 3 3 8 29 12 57 3 28 10 54 16 58 11 7 194
-180 203 -209 3 -10 9 -16 14 -13 4 3 1 23 -6 46 -8 22 -17 68 -21 102 -7 72
-18 97 -70 153 -47 51 -158 124 -188 124 -1 0 -1 -27 2 -60 3 -33 3 -60 0 -60
-3 0 -19 21 -36 48 -61 94 -72 102 -142 106 -35 3 -89 1 -119 -3z m402 -950
c13 -15 36 -36 51 -46 26 -17 27 -21 27 -108 l0 -90 -54 -67 c-63 -78 -142
-140 -179 -140 -22 0 -28 10 -71 133 -25 72 -46 137 -46 144 0 19 141 156 185
180 53 28 59 28 87 -6z m232 -6 c25 -67 30 -308 8 -390 -8 -28 -10 -25 -55 67
-44 89 -47 101 -47 175 0 76 1 80 37 121 40 46 48 50 57 27z m-71 -463 c28
-69 30 -108 12 -184 -17 -70 -70 -188 -85 -188 -4 0 -10 34 -13 76 -3 42 -10
81 -14 85 -5 5 -22 -4 -38 -21 -16 -16 -34 -30 -41 -30 -7 0 -14 -4 -16 -9 -1
-5 -12 -11 -23 -13 -16 -2 -24 10 -47 77 -33 97 -33 95 -7 95 13 0 48 28 92
75 69 71 74 74 118 75 45 0 47 -1 62 -38z"/>
<path d="M1886 2622 c-15 -3 -16 -50 -14 -520 l3 -517 57 -3 58 -3 2 168 3
168 35 2 c19 2 58 8 87 14 120 27 193 158 193 346 0 144 -45 256 -123 309 -39
27 -50 29 -163 34 -67 3 -129 4 -138 2z m240 -207 c37 -28 54 -75 53 -145 -1
-104 -53 -164 -139 -158 l-45 3 -3 140 c-4 184 -3 185 55 185 34 0 55 -7 79
-25z"/>
<path d="M3824 2565 c-37 -56 -27 -159 17 -184 42 -23 75 -8 95 44 15 39 15
52 4 88 -6 23 -19 50 -28 60 -23 26 -68 22 -88 -8z"/>
<path d="M2796 2275 c-40 -17 -105 -83 -123 -125 -23 -51 -52 -179 -53 -226 0
-54 28 -180 51 -225 26 -52 65 -95 101 -114 39 -19 130 -20 167 -1 29 16 101
90 101 105 0 11 -61 111 -68 111 -2 0 -13 -11 -23 -24 -21 -26 -72 -56 -96
-56 -26 0 -75 42 -89 76 -27 65 -30 64 141 64 l155 0 0 90 c0 153 -57 276
-147 320 -48 23 -75 24 -117 5z m100 -170 c21 -14 54 -72 54 -94 0 -7 -34 -11
-101 -11 l-101 0 6 32 c14 70 90 110 142 73z"/>
<path d="M3304 2278 c-12 -5 -32 -27 -45 -48 -28 -44 -39 -43 -39 6 l0 34 -50
0 c-27 0 -50 -3 -51 -7 -4 -60 -8 -644 -4 -660 5 -20 12 -23 55 -23 27 0 51 4
54 9 3 5 7 110 8 234 3 211 4 227 24 254 31 42 69 42 94 1 18 -30 20 -50 20
-253 0 -121 4 -226 9 -233 5 -9 25 -12 57 -10 l49 3 5 230 c3 127 10 239 15
250 22 50 75 60 102 18 16 -23 19 -59 23 -263 l5 -235 55 0 55 0 0 270 0 270
-30 60 c-63 125 -149 138 -226 32 l-28 -38 -15 30 c-19 36 -76 81 -102 80 -10
0 -28 -5 -40 -11z"/>
<path d="M4155 2276 c-121 -46 -193 -237 -167 -441 15 -115 55 -191 129 -243
24 -17 45 -22 92 -22 76 0 125 27 172 92 20 27 20 28 1 55 -11 16 -27 41 -36
57 l-18 28 -32 -31 c-17 -17 -46 -36 -64 -42 -29 -10 -36 -8 -67 16 -31 23
-65 79 -65 106 0 5 71 10 158 11 l157 3 3 49 c4 66 -14 174 -39 233 -24 57
-61 98 -111 124 -41 21 -68 22 -113 5z m102 -175 c13 -11 27 -31 33 -46 20
-53 18 -55 -84 -55 -52 0 -97 3 -100 8 -7 11 19 64 43 90 27 27 77 29 108 3z"/>
<path d="M2357 2264 c-9 -9 -10 -646 -1 -668 5 -12 20 -16 60 -16 l54 0 0 200
c0 158 3 208 15 237 24 57 43 73 87 73 l38 0 0 90 0 90 -35 0 c-39 0 -64 -18
-88 -65 -17 -32 -24 -25 -29 30 -3 28 -6 30 -48 33 -25 2 -49 0 -53 -4z"/>
<path d="M3815 2258 c-3 -7 -4 -162 -3 -343 l3 -330 55 0 55 0 0 340 0 340
-53 3 c-36 2 -54 -1 -57 -10z"/>
<path d="M4475 2258 c-3 -7 -4 -162 -3 -343 l3 -330 58 -3 57 -3 0 206 c0 158
3 214 15 241 20 48 38 64 73 64 58 0 62 5 62 91 0 77 -1 79 -26 85 -40 10 -76
-7 -104 -50 l-25 -39 -5 44 -5 44 -48 3 c-32 2 -49 -1 -52 -10z"/>
<path d="M1872 954 l3 -506 195 1 195 0 3 90 3 90 -138 3 -138 3 -3 413 -2
412 -60 0 -60 0 2 -506z"/>
<path d="M2452 1129 c-50 -25 -105 -100 -127 -172 -21 -70 -28 -194 -15 -272
38 -237 213 -330 358 -189 l55 53 -24 38 c-12 21 -28 46 -33 56 -13 21 -32 22
-40 2 -8 -21 -66 -55 -94 -55 -36 0 -78 35 -96 81 -9 23 -14 44 -11 48 4 3 75
6 158 6 l152 0 3 55 c5 74 -15 185 -44 240 -59 117 -147 156 -242 109z m146
-189 c12 -18 22 -44 22 -56 0 -24 -2 -24 -94 -24 -52 0 -98 4 -101 10 -7 11
27 81 47 97 38 31 95 19 126 -27z"/>
<path d="M4447 1130 c-151 -75 -207 -375 -106 -572 67 -132 202 -166 303 -76
69 60 70 65 29 131 l-34 57 -26 -30 c-13 -17 -31 -30 -39 -30 -8 0 -14 -4 -14
-10 0 -17 -61 -11 -90 10 -25 18 -67 96 -56 107 2 2 69 4 147 4 79 0 152 2
162 5 14 5 17 18 17 85 0 43 -4 79 -9 79 -5 0 -12 17 -16 38 -8 45 -46 129
-73 159 -29 33 -89 63 -125 63 -18 -1 -49 -9 -70 -20z m134 -180 c10 -14 22
-40 25 -57 l7 -33 -96 0 c-53 0 -98 4 -101 9 -9 13 12 62 37 89 30 32 102 28
128 -8z"/>
<path d="M2953 1133 c-35 -7 -94 -72 -127 -143 -30 -63 -31 -70 -31 -200 0
-116 4 -143 23 -191 26 -64 80 -132 125 -155 54 -28 156 5 172 56 10 30 25 24
25 -10 0 -33 3 -35 68 -44 l42 -6 0 345 0 346 -52 -3 -53 -3 -5 -40 -5 -40
-20 32 c-31 52 -86 71 -162 56z m105 -167 c15 -8 38 -34 52 -58 20 -35 24 -56
24 -118 0 -112 -43 -180 -114 -180 -64 0 -110 76 -110 182 0 70 19 119 61 159
35 33 48 35 87 15z"/>
<path d="M3474 1134 c-38 -9 -101 -72 -127 -128 -55 -115 -60 -272 -12 -409
44 -129 148 -195 239 -152 20 10 43 26 50 36 28 41 35 -17 11 -99 -34 -114
-138 -135 -221 -45 l-33 35 -30 -67 c-17 -37 -31 -70 -31 -72 0 -17 65 -82
100 -101 50 -26 141 -30 186 -8 39 20 100 84 114 121 37 96 40 132 40 510 l0
375 -49 0 c-51 0 -61 -9 -61 -51 0 -27 -9 -24 -44 17 -31 36 -78 49 -132 38z
m106 -174 c112 -80 82 -350 -40 -350 -66 0 -113 67 -114 165 -2 105 21 160 79
193 28 16 43 15 75 -8z"/>
<path d="M3822 893 c4 -216 6 -244 27 -303 38 -109 107 -165 195 -158 88 7
145 63 182 179 13 43 18 103 22 287 l4 232 -61 0 -61 0 0 -198 c0 -267 -20
-327 -106 -320 -31 2 -42 9 -59 38 -18 32 -20 55 -23 258 l-3 222 -61 0 -60 0
4 -237z"/>
</g>
</svg>
