<?xml version="1.0" standalone="no"?>
<!DOCTYPE svg PUBLIC "-//W3C//DTD SVG 20010904//EN"
 "http://www.w3.org/TR/2001/REC-SVG-20010904/DTD/svg10.dtd">
<svg version="1.0" xmlns="http://www.w3.org/2000/svg"
 width="176.000000pt" height="88.000000pt" viewBox="0 0 176.000000 88.000000"
 preserveAspectRatio="xMidYMid meet">
<metadata>
Created by potrace 1.16, written by Peter Selinger 2001-2019
</metadata>
<g transform="translate(0.000000,88.000000) scale(0.100000,-0.100000)"
fill="#000000" stroke="none">
<path d="M0 440 l0 -440 880 0 880 0 0 440 0 440 -880 0 -880 0 0 -440z m417
202 c6 -4 -27 -7 -73 -7 -47 0 -88 -4 -92 -10 -4 -5 -16 -15 -27 -21 -12 -7
-20 -22 -20 -37 1 -14 -3 -23 -7 -21 -4 3 -8 12 -8 20 0 23 -17 16 -39 -15
-13 -18 -17 -31 -10 -33 7 -2 4 -16 -9 -38 -11 -19 -23 -46 -27 -58 -6 -21 -4
-23 13 -18 18 6 19 1 19 -64 0 -39 3 -74 7 -78 4 -4 25 13 45 37 l38 45 7 -48
c4 -26 4 -60 1 -76 -6 -26 -3 -31 20 -40 39 -15 75 -12 121 9 27 12 45 16 52
9 13 -13 59 44 72 92 6 22 16 39 23 37 9 -1 12 19 11 71 0 74 11 78 21 7 7
-46 -7 -121 -22 -118 -5 1 -17 -15 -26 -35 -22 -51 -84 -111 -92 -90 -5 13
-11 14 -43 2 -45 -16 -76 -17 -124 -4 l-38 11 7 59 c3 33 3 60 0 60 -3 0 -20
-14 -37 -32 -31 -31 -33 -31 -46 -13 -8 11 -14 43 -14 78 0 54 -2 58 -20 52
-26 -8 -27 24 -1 81 13 29 16 45 9 52 -15 15 89 115 133 129 39 13 158 16 176
5z m333 -12 c41 -41 19 -99 -42 -114 -23 -5 -28 -12 -28 -36 0 -23 -4 -30 -20
-30 -19 0 -20 7 -20 100 l0 100 45 0 c32 0 51 -6 65 -20z m-370 -25 c17 -9 30
-11 30 -5 0 18 18 11 54 -24 35 -33 46 -56 26 -56 -5 0 -10 7 -10 15 0 8 -7
15 -15 15 -19 0 -19 -9 -1 -29 13 -14 11 -16 -13 -16 -32 0 -61 20 -61 43 0 8
-3 12 -6 9 -4 -3 -15 -2 -26 4 -20 11 -58 3 -58 -12 0 -5 13 -9 28 -9 16 0 37
-9 47 -20 18 -20 17 -20 -24 -20 -33 0 -47 6 -67 27 -22 24 -23 29 -10 39 9 6
13 14 9 17 -3 4 9 13 28 21 42 19 35 19 69 1z m759 -25 c25 13 27 13 45 -6 22
-21 23 -124 2 -124 -11 0 -16 14 -18 47 -2 36 -7 49 -20 51 -15 3 -18 -4 -18
-47 0 -44 -3 -51 -19 -51 -17 0 -20 8 -23 48 -2 34 -7 47 -18 47 -11 0 -16
-13 -18 -47 -3 -40 -6 -48 -23 -48 -17 0 -19 7 -19 66 0 65 1 66 24 62 14 -3
30 -1 37 3 7 4 21 3 31 -2 12 -6 25 -6 37 1z m-138 -220 c13 -7 19 -7 19 0 0
5 7 10 15 10 12 0 15 -14 15 -70 0 -64 -9 -86 -25 -60 -4 7 -12 7 -25 0 -10
-5 -24 -10 -30 -10 -19 0 -60 48 -60 70 0 22 41 70 60 70 6 0 20 -5 31 -10z
m209 -67 c0 -65 -3 -77 -25 -98 -27 -28 -62 -32 -91 -11 -25 19 -13 29 33 30
20 1 38 7 40 13 3 9 -4 11 -25 7 -72 -15 -102 107 -32 128 8 3 34 5 58 5 l42
0 0 -74z"/>
</g>
</svg>
